<svg xmlns="http://www.w3.org/2000/svg" viewBox="0 0 93.61 119"><defs><style>.cls-1{fill:#f8ac18;}</style></defs><title>flameDot</title><g id="Layer_2" data-name="Layer 2"><g id="Layer_1-2" data-name="Layer 1"><path class="cls-1" d="M57.89,45.19c.37-.82,6.31,3,6.75,3,.63,0,2.4,1.7,3.67,1.76s2.07.29,2.71.29.21.47,1.32.37-1.57.32-1,.32,1,.25,1,.75c0,2.47,13.29,7.36,13.11,12.27s2.49,6.48,2.49,8.95c0,2.28-.34-2.07-.15,2.49s-.59,11.09-.59,13.34c0,.27.55,5.35.44,5.51,8.5-12.05-.9-39.52-.9-39.52C73.79,64.25,81.16,50,81.16,50,96.21,30,76.83,16.86,69.23,12.71a18.17,18.17,0,0,0-3.42-1.41,11.79,11.79,0,0,1-2.76-.79C54.54,7.53,69.5,0,69.5,0c-22.95,4.79-20,11.11-15.11,14.07,2,1.24,5.9,3.78,5.9,3.78l.26.21C72,30.26,43.09,30.62,43.09,30.62c3.07-5.66-8-11.33-8-11.33C41.25,29.48,32,31.75,32,31.75c-11.67,1.7-15.35,15.86-15.35,15.86-5.53-3.4-4.3-11.9-4.3-11.9C-13.82,68.84,8.94,99.86,13.82,103c0-.12-13.44-18.67-1.76-17,2.26.32-1.4-4.81-1.17-9.39s1.47-3,1.47-5.28,2.27-6.82,2.05-13.49c0-1.74,9.86-2,9.69-5.39l0-.53q0-.63,1.36-.63c1.19,0,3.33-2.47,5.7-2.54s1.86-.71,4.47-2c2.42-1.17,5.65-3.19,6.09-2.31"/><path class="cls-1" d="M88.64,51.67c.37,0-1,5.71-1,6.08-1.79,4,1.31,5.57-.48,9.59-2.66,6,1.72,6-.94,12,.05-1.48-1.26-2.83-1.17-4.69.23-4.56-.73-5.2-.73-7.48s-2.13-1-2.35-5.87-3.65-7-3.65-9.38a.61.61,0,0,1,.68-.69q1,0,3,.09t3,.09"/><path class="cls-1" d="M86.56,95.79s7.23-5,7-51.37c0,0-1.63,8.25-14.86,6.93C78.74,51.35,90.81,84.2,86.56,95.79Z"/><ellipse class="cls-1" cx="47.95" cy="77.58" rx="43.2" ry="41.42"/></g></g></svg>