<svg xmlns="http://www.w3.org/2000/svg" viewBox="0 0 106.38 148.57"><defs><style>.cls-1{fill:#c60000;}</style></defs><title>iconYT1</title><g id="Layer_2" data-name="Layer 2"><g id="Layer_1-2" data-name="Layer 1"><g id="Layer_1-3" data-name="Layer 1"><path class="cls-1" d="M106.24,94.47v2.7c-.1,1.2-.1,2.3-.2,3.5q-.3,3-.9,6a53.07,53.07,0,0,1-27,35.7,45.9,45.9,0,0,1-7.9,3.4A58.63,58.63,0,0,1,61,148a54.81,54.81,0,0,1-5.7.5l-.8.1h-2.4a1.27,1.27,0,0,1-.6-.1,43.37,43.37,0,0,1-6.2-.6A53,53,0,0,1,.24,97.17a.9.9,0,0,0-.1-.5v-2.8a6.6,6.6,0,0,1,.1-1.4,52.92,52.92,0,0,1,33.2-46.3,54.11,54.11,0,0,1,12.4-3.3,54.81,54.81,0,0,1,5.7-.5h3.1l4.1.3a46.42,46.42,0,0,1,6.5,1.1,52.39,52.39,0,0,1,34.1,25.6,52,52,0,0,1,6.8,24.4A1.48,1.48,0,0,0,106.24,94.47Zm-53.1-16.6c-2.3,0-4.5.1-6.8.2-1,0-2.1.1-3.1.2l-4,.3-3.5.3c-1.2.1-2,.3-3,.4a4.7,4.7,0,0,0-3.1,1.6,3.72,3.72,0,0,0-1,2.2c0,.1-.1.2-.1.3s-.1.2-.1.3c-.2,1.7-.4,3.4-.5,5.1s-.3,3.6-.3,5.4c0,2,0,3.9.1,5.9a28.25,28.25,0,0,0,.2,2.9c.1,1,.2,2.2.3,3.3a10.86,10.86,0,0,0,.4,2.5,4.63,4.63,0,0,0,1.7,2.4,5,5,0,0,0,2.9.9c2.1.3,4.3.5,6.4.7s4.5.3,6.7.4,4.7.2,7,.1c2.5,0,5.1-.1,7.6-.2,1.2,0,2.4-.1,3.6-.2,1.7-.1,3.4-.3,5-.5,1.4-.2,2.9-.3,4.3-.6a4.53,4.53,0,0,0,3.7-3.1c.1-.2,0-.5.1-.7a3.54,3.54,0,0,0,.3-1.1c.2-1.4.3-2.8.4-4.2s.2-2.9.3-4.4q.15-3.6,0-7.2c-.1-2-.3-4-.5-6a12.82,12.82,0,0,0-.5-2.7,4.23,4.23,0,0,0-2.9-2.9,22.11,22.11,0,0,0-2.5-.5l-5.9-.6c-2-.2-4.2-.4-6.3-.5C57.74,78,55.54,77.87,53.14,77.87Z"/><path class="cls-1" d="M48.34,95.57v-7.4a1.13,1.13,0,0,1,1-1.3,1.39,1.39,0,0,1,1.1.2c3.4,2.4,6.8,4.9,10.1,7.3a2.09,2.09,0,0,1,.4.6,2.92,2.92,0,0,1,.2.9.67.67,0,0,1-.4.7l-10.6,7.7a1.18,1.18,0,0,1-1,.1,1.57,1.57,0,0,1-.9-1.4C48.34,100.47,48.34,98.07,48.34,95.57Z"/></g><path class="cls-1" d="M65.8,51.36c.42-.93,7.18,3.42,7.67,3.42.71,0,2.73,1.93,4.17,2s2.35.33,3.08.33.24.54,1.5.42-1.78.37-1.17.37,1.1.29,1.1.86c0,2.81,15.1,8.37,14.9,13.94s2.83,7.36,2.83,10.17c0,2.59-.39-2.35-.17,2.83S99,98.29,99,100.86c0,.3.62,6.08.5,6.26,9.66-13.7-1-44.92-1-44.92C83.87,73,92.24,56.8,92.24,56.8c17.11-22.65-4.93-37.63-13.56-42.35a20.66,20.66,0,0,0-3.89-1.6,13.4,13.4,0,0,1-3.14-.9C62,8.56,79,0,79,0,52.91,5.45,56.3,12.63,61.81,16c2.3,1.41,6.7,4.29,6.7,4.29l.29.24C81.77,34.39,49,34.8,49,34.8c3.49-6.44-9.07-12.88-9.07-12.88,7,11.59-3.49,14.16-3.49,14.16C23.16,38,19,54.11,19,54.11c-6.28-3.86-4.88-13.52-4.88-13.52-29.8,37.64-3.92,72.9,1.63,76.44,0-.14-15.27-21.22-2-19.33,2.57.36-1.59-5.47-1.33-10.67S14,83.62,14,81c0-2.76,2.58-7.75,2.33-15.33,0-2,11.21-2.22,11-6.12l0-.61q0-.71,1.55-.71c1.35,0,3.78-2.81,6.48-2.89s2.11-.81,5.08-2.25c2.75-1.33,6.43-3.63,6.92-2.63"/><path class="cls-1" d="M100.74,52.73c.42,0-1.09,6.49-1.09,6.91-2,4.57,1.49,6.33-.55,10.9-3,6.8,2,6.85-1.07,13.65.06-1.68-1.44-3.22-1.33-5.33.26-5.18-.83-5.91-.83-8.5,0-2.76-2.42-1.14-2.67-6.67S89.07,55.8,89.07,53c0-.52-.07-1.3,0-.78.27,2.07,2.64,2.51,4.18,2.58s5-1,4.33-2.32"/><path class="cls-1" d="M98.38,102.86s8.22-5.67,8-58.38c0,0-4.35,10.43-19.39,8.93C87,53.42,103.21,89.7,98.38,102.86Z"/></g></g></svg>