<svg xmlns="http://www.w3.org/2000/svg" viewBox="0 0 108.68 146.13"><defs><style>.cls-1{fill:#c60000;}</style></defs><title>iconFB1</title><g id="Layer_2" data-name="Layer 2"><g id="Layer_1-2" data-name="Layer 1"><path class="cls-1" d="M65.8,51.36c.42-.93,7.18,3.42,7.67,3.42.71,0,2.73,1.93,4.17,2s2.35.33,3.08.33.24.54,1.5.42-1.78.37-1.17.37,1.1.29,1.1.86c0,2.81,15.1,8.37,14.9,13.94s2.83,7.36,2.83,10.17c0,2.59-.39-2.35-.17,2.83S99,98.29,99,100.86c0,.3.62,6.08.5,6.26,9.66-13.7-1-44.92-1-44.92C83.87,73,92.24,56.8,92.24,56.8c17.11-22.65-4.93-37.63-13.56-42.35a20.66,20.66,0,0,0-3.89-1.6,13.4,13.4,0,0,1-3.14-.9C62,8.56,79,0,79,0,52.91,5.45,56.3,12.63,61.81,16c2.3,1.41,6.7,4.29,6.7,4.29l.29.24C81.77,34.39,49,34.8,49,34.8c3.49-6.44-9.07-12.88-9.07-12.88,7,11.59-3.49,14.16-3.49,14.16C23.16,38,19,54.11,19,54.11c-6.28-3.86-4.88-13.52-4.88-13.52-29.8,37.64-3.92,72.9,1.63,76.44,0-.14-15.27-21.22-2-19.33,2.57.36-1.59-5.47-1.33-10.67S14,83.62,14,81c0-2.76,2.58-7.75,2.33-15.33,0-2,11.21-2.22,11-6.12l0-.61q0-.71,1.55-.71c1.35,0,3.78-2.81,6.48-2.89s2.11-.81,5.08-2.25c2.75-1.33,6.43-3.63,6.92-2.63"/><path class="cls-1" d="M100.74,58.73c.42,0-1.09,6.49-1.09,6.91-2,4.57,1.49,6.33-.55,10.9-3,6.8,2,6.85-1.07,13.65.06-1.68-1.44-3.22-1.33-5.33.26-5.18-.83-5.91-.83-8.5,0-2.76-2.42-1.14-2.67-6.67S89.07,61.8,89.07,59a.69.69,0,0,1,.77-.78q1.14,0,3.44.11t3.44.11"/><path class="cls-1" d="M98.38,108.86s8.22-5.67,8-58.38c0,0-1.85,9.38-16.89,7.88C89.49,58.36,103.21,95.7,98.38,108.86Z"/><g id="Layer_2-2" data-name="Layer 2"><path class="cls-1" d="M55.81,146.13c-1.8-.1-3.7-.2-5.7-.4a49.65,49.65,0,0,1-10.8-2.4,53.56,53.56,0,0,1-34.2-34.7,36.6,36.6,0,0,1-1.8-8.1c-.2-1.7-.4-3.4-.5-5.1s-.1-3.1-.1-4.7q.15-3.15.6-6.3a51.39,51.39,0,0,1,6.4-17.8,54.1,54.1,0,0,1,29-23.8,60.35,60.35,0,0,1,8.1-2.1c1.5-.3,3.1-.4,4.6-.6,2.2-.1,4.4-.1,6.5,0,1.7.1,3.5.3,5.2.5a44.61,44.61,0,0,1,9.6,2.2,48.72,48.72,0,0,1,10.1,4.7A52.94,52.94,0,0,1,103.51,70a51,51,0,0,1,4.3,13.2,49.87,49.87,0,0,1,.7,5.4,46.77,46.77,0,0,1,.1,6.5,53.47,53.47,0,0,1-33.2,47.3,50.85,50.85,0,0,1-9.4,2.8c-1.6.3-3.3.6-5,.8S57.61,146,55.81,146.13Zm-18.4-16.5v-29.5c0-.3-.1-.3-.3-.3h-5.7a.27.27,0,0,1-.3-.3v-9.7c0-.4,0-.4.4-.4h6V89c0-2.6,0-5.2.1-7.8a13.17,13.17,0,0,1,.8-4.4,9.66,9.66,0,0,1,5.9-6.4,15,15,0,0,1,5.9-1H59q.45,0,.3.3v10h-5.2a9.85,9.85,0,0,0-1.7.2,2.66,2.66,0,0,0-2.3,2.1,4.48,4.48,0,0,0-.1,1.1v5.8c0,.4,0,.4.4.4h8.8c.3,0,.4,0,.3.3-.2,1.3-.3,2.7-.5,4-.2,1.9-.4,3.8-.7,5.7a.27.27,0,0,1-.3.3h-7.9c-.2,0-.3,0-.3.3v33.3s0,.3.2.3.6.1.8.1c1.4.1,2.8.3,4.3.3s2.8-.1,4.3-.2a28.17,28.17,0,0,0,5.7-.9A40.86,40.86,0,0,0,96.61,94a28.83,28.83,0,0,0-.3-5.9,38.39,38.39,0,0,0-1.1-5.9A39.1,39.1,0,0,0,86,65.43a40.92,40.92,0,0,0-27.8-13.2,29.44,29.44,0,0,0-4.2,0c-1.6.1-3.2.2-4.8.4a42.13,42.13,0,0,0-7.2,1.8,43.13,43.13,0,0,0-17.3,12.1,39.75,39.75,0,0,0-9.6,23.1c-.1,1.6-.1,3.3-.1,5a57,57,0,0,0,.6,5.8,38.89,38.89,0,0,0,3.9,11.3,40.85,40.85,0,0,0,16.6,17.1C36.51,129,36.91,129.33,37.41,129.63Z"/></g></g></g></svg>