<svg xmlns="http://www.w3.org/2000/svg" viewBox="0 0 106.38 142.4"><defs><style>.cls-1,.cls-3{fill:#f8ac18;}.cls-2{fill:#c60000;stroke:#c60000;stroke-width:3px;}.cls-2,.cls-3{stroke-miterlimit:10;}.cls-3{stroke:#f8ac18;}</style></defs><title>iconTW2</title><g id="Layer_2" data-name="Layer 2"><g id="Layer_1-2" data-name="Layer 1"><path class="cls-1" d="M65.8,51.36c.42-.93,7.18,3.42,7.67,3.42.71,0,2.73,1.93,4.17,2s2.35.33,3.08.33.24.54,1.5.42-1.78.37-1.17.37,1.1.29,1.1.86c0,2.81,15.1,8.37,14.9,13.94s2.83,7.36,2.83,10.17c0,2.59-.39-2.35-.17,2.83S99,98.29,99,100.86c0,.3.62,6.08.5,6.26,9.66-13.7-1-44.92-1-44.92C83.87,73,92.24,56.8,92.24,56.8c17.11-22.65-4.93-37.63-13.56-42.35a20.66,20.66,0,0,0-3.89-1.6,13.4,13.4,0,0,1-3.14-.9C62,8.56,79,0,79,0,52.91,5.45,56.3,12.63,61.81,16c2.3,1.41,6.7,4.29,6.7,4.29l.29.24C81.77,34.39,49,34.8,49,34.8c3.49-6.44-9.07-12.88-9.07-12.88,7,11.59-3.49,14.16-3.49,14.16C23.16,38,19,54.11,19,54.11c-6.28-3.86-4.88-13.52-4.88-13.52-29.8,37.64-3.92,72.9,1.63,76.44,0-.14-15.27-21.22-2-19.33,2.57.36-1.59-5.47-1.33-10.67S14,83.62,14,81c0-2.76,2.58-7.75,2.33-15.33,0-2,11.21-2.22,11-6.12l0-.61q0-.71,1.55-.71c1.35,0,3.78-2.81,6.48-2.89s2.11-.81,5.08-2.25c2.75-1.33,6.43-3.63,6.92-2.63"/><path class="cls-1" d="M100.74,58.73c.42,0-1.09,6.49-1.09,6.91-2,4.57,1.49,6.33-.55,10.9-3,6.8,2,6.85-1.07,13.65.06-1.68-1.44-3.22-1.33-5.33.26-5.18-.83-5.91-.83-8.5,0-2.76-2.42-1.14-2.67-6.67S89.07,61.8,89.07,59a.69.69,0,0,1,.77-.78q1.14,0,3.44.11t3.44.11"/><path class="cls-1" d="M98.38,108.86s8.22-5.67,8-58.38c0,0-1.85,9.38-16.89,7.88C89.49,58.36,103.21,95.7,98.38,108.86Z"/><g id="Layer_5" data-name="Layer 5"><path class="cls-2" d="M54.53,42.7a49.1,49.1,0,1,0,49.1,49.1h0a49.12,49.12,0,0,0-49.1-49.1Zm0,90.5a41.45,41.45,0,1,1,41.4-41.5h0a41.38,41.38,0,0,1-41.4,41.5Z"/><path class="cls-3" d="M79.93,74.9a19.56,19.56,0,0,1-5.8,1.8,12.22,12.22,0,0,0,4.4-6.1c-1.5,1-4.9,2.5-6.6,2.5h0a10.11,10.11,0,0,0-7.6-3.5c-5.8,0-10.5,5.1-10.5,11.3a10.68,10.68,0,0,0,.3,2.5h0a29.7,29.7,0,0,1-22.3-11.7c-3.2,5.9-.4,12.5,3.2,14.9-1.2.1-3.5-.2-4.6-1.3a10.76,10.76,0,0,0,8.1,11c-1.2.7-3.4.5-4.4.3.3,3.3,4.7,7.7,9.4,7.7-1.7,2.1-7.4,5.9-14.5,4.7a30.11,30.11,0,0,0,16.4,5c16.9,0,30.1-14.8,29.4-33v-.4A18.54,18.54,0,0,0,79.93,74.9Z"/></g></g></g></svg>