<svg xmlns="http://www.w3.org/2000/svg" viewBox="0 0 2662.04 307.9"><defs><style>.cls-1{fill:#fff;}</style></defs><title>whitflame</title><g id="Layer_2" data-name="Layer 2"><g id="Layer_1-2" data-name="Layer 1"><g id="Layer_1-3" data-name="Layer 1"><path class="cls-1" d="M2317.1,216.9h320.2c.9-2,1.5-3.3,1.5-3.3,62.8-85.2-18.1-141.5-49.7-159.3a72.34,72.34,0,0,0-14.3-6c-5.8-.9-7.8-2-11.5-3.4C2527.8,32.1,2590.2,0,2590.2,0c-95.7,20.5-83.2,47.5-63,60.1,8.5,5.3,24.6,16.1,24.6,16.1a8.26,8.26,0,0,0,1.1.9c47.6,52.2-72.8,53.7-72.8,53.7,12.8-24.2-33.3-48.4-33.3-48.4,25.6,43.6-12.8,53.3-12.8,53.3-48.7,7.3-64,67.8-64,67.8-23-14.5-17.9-50.8-17.9-50.8C2334.6,175.3,2323.4,196.7,2317.1,216.9Z"/><path class="cls-1" d="M2317,216.9,0,304.9H2662v-154S2420,206.9,2317,216.9Z"/></g><path class="cls-1" d="M1980,229.7c347.69-13.21,346.1-35.5,346.1-35.5v35.5Z"/><rect class="cls-1" y="304.07" width="2662.04" height="3.83"/></g></g></svg>