<svg xmlns="http://www.w3.org/2000/svg" viewBox="0 0 274.67 275.24"><defs><style>.cls-1{fill:#231f20;}</style></defs><title>MoultonLogoBullet</title><g id="Layer_5" data-name="Layer 5"><path class="cls-1" d="M287.3,209.21a54.93,54.93,0,0,1-11.18-1.81c-6.47-2-8.43-7-10-20.1L250,65.88c-.59-5-1.77-7.84-3.73-7.84s-3.53,2-6.67,7.24l-53.74,97.3L129.81,66.28C125.69,60,124.32,58,122.16,58c-2,0-3.33,1.81-4.12,7.84L100.19,189.51c-.28,1.87-.55,3.56-.84,5.1a12.12,12.12,0,0,1,1.1,5.21v13c2.63-.09,5.1-.16,7.2-.16l2,0,2.74-11.25c1.06-4.35,3.74-6.86,6.9-7.88.09-2.64.28-6,.7-10.64l5.69-56.69c3.73,6.83,12.36,23.32,15.69,29.15,7.45,12.87,19.42,35.78,26.28,47,5.49,8.85,6.67,10.86,8.83,10.86,1.57,0,2.75-1.21,8-11.46l40.4-77.6,7.06,72c.78,9,.59,10.25-2.55,11.46-1.37.4-2.16,1.21-2.16,2,0,1,.78,2.21,4.51,2.41,22.36,1.21,38.24,1.21,54.52,1.21,3.14,0,4.71-.4,4.71-2C291,209.81,289.85,209.21,287.3,209.21Z" transform="translate(-16.36 -58.04)"/><polygon class="cls-1" points="103.11 132.17 90.51 238.38 61.58 234.94 83.43 134.08 103.11 132.17"/><ellipse class="cls-1" cx="45.29" cy="236.97" rx="45.29" ry="38.26"/></g></svg>