<svg xmlns="http://www.w3.org/2000/svg" viewBox="0 0 736 413"><defs><style>.cls-1{fill:#fff3c2;}.cls-2{fill:none;}</style></defs><title>nav_hover</title><g id="Layer_2" data-name="Layer 2"><g id="Layer_1-2" data-name="Layer 1"><path class="cls-1" d="M676.66,229.29c57-67.25,8-126.24-11.83-145.56a48.35,48.35,0,0,0-9.22-7c-3.95-1.48-5.25-2.73-7.65-4.32-23.26-15.4,19.82-34.9,19.82-34.9-70.77,6.61-59.5,33.64-47,47.13,5.21,5.64,6.51,5.67,6.51,5.67.37.57,7.87,8.13,7.95,8.21,26,51.39-58.79,39.34-58.79,39.34,12.62-19.71-18.86-43.19-18.86-43.19,11.73,41.25-14.49,42-14.49,42-35.52.6-55.29,51.84-55.29,51.84-14.19-15.47-5.22-46.71-5.22-46.71-43,48.63-58.91,95.93-62.59,134.24a132.8,132.8,0,0,1,21.37-28.45c10.93-10.88,23.82-18.33,38.27-23.44a133,133,0,0,1,42.93-7.77c14.86-.08,31.71,3.48,41.93,15.17a22,22,0,0,1,4.4,7.65,28.86,28.86,0,0,1,8.58,13.66,27.74,27.74,0,0,1,.72,3.25c9.44.07,18.9.56,28.39.77a53.74,53.74,0,0,0-3.53-8.61c-.08-.08-7.57-7.64-7.95-8.21,0,0-1.3,0-6.51-5.67-12.45-13.49-23.73-40.52,47-47.13,0,0-43.07,19.5-19.82,34.9,2.41,1.59,3.71,2.84,7.65,4.32a48.36,48.36,0,0,1,9.22,7c12.12,11.82,35.15,38.48,38.17,72.8C682.42,275.46,690,249.86,690,249.86,645.94,279.15,676.66,229.29,676.66,229.29Z"/><path class="cls-1" d="M313.58,173.57c-.59-.82-1.16-1.64-1.77-2.46,0,0,.22,1.67.35,4.4A17.6,17.6,0,0,1,313.58,173.57Z"/><path class="cls-1" d="M163.74,236.85a41.4,41.4,0,0,1,18.19-20.28c.63-.35,1.27-.67,1.92-1a43.74,43.74,0,0,1,11.1-10.19c9.45-6.1,21.17-9.25,32.12-11.32a237.27,237.27,0,0,1,33.05-3.91,127,127,0,0,1,23.82,1.18c-8.92-15.71-23.65-32.81-46.42-36.39,0,0-32.51-5.4-9.29-46.95,0,0-44.11,19.25-32.51,42.33,0,0-108.15-2.29-65-52,.11-.07,11-6.74,11.61-7.27,0,0,1.62.2,9.29-4.85,18.33-12.06,38-38.65-48.76-58.18,0,0,49.58,28.26,17.4,40.43-3.33,1.26-5.21,2.35-10.43,3.21a65.89,65.89,0,0,0-12.94,5.73C68.16,94.29-5.15,148,51.77,229.21c0,0,27.86,58.18-20.9,19.39,0,0,3.91,27.25,11.61,60.91,7.56-3.59,18.41-13.58,3-39.74,0,0,41.11,17.06,30.29,37.51,0,0,100.77-2,60.58-46.1-.1-.06-10.27-6-10.82-6.44,0,0-1.51.17-8.65-4.3-17.08-10.69-35.41-34.25,45.43-51.56,0,0-46.2,25-16.21,35.82,3.1,1.12,4.86,2.08,9.72,2.85a60.86,60.86,0,0,1,6.17,2.23A33.68,33.68,0,0,1,163.74,236.85Z"/><path class="cls-1" d="M166.22,231.9a41.33,41.33,0,0,1,15.7-15.33c.63-.35,1.27-.67,1.92-1a43.74,43.74,0,0,1,11.1-10.19,65.72,65.72,0,0,1,13.87-6.61c-10.15-16.7-6.95-39.52-6.95-39.52C182.23,184.69,171.15,209,166.22,231.9Z"/><path class="cls-1" d="M438.93,60.94a74.73,74.73,0,0,0-14.27-6c-5.76-.91-7.84-2-11.51-3.37-35.49-12.76,19.19-42.4,19.19-42.4-95.7,20.48-74,48.38-53.78,61,8.45,5.29,10.24,5.09,10.24,5.09.64.56,12.68,7.56,12.8,7.63,47.57,52.17-71.7,54.57-71.7,54.57,12.8-24.21-35.85-44.4-35.85-44.4,25.61,43.58-10.24,49.24-10.24,49.24-32.58,4.86-50.23,33.6-58.34,52.07l1.59-.31a237.27,237.27,0,0,1,33.05-3.91,134.28,134.28,0,0,1,44.17,5.64,73,73,0,0,1,7.3-19.39,17.45,17.45,0,0,1,6.71-6.74c7.86-7.14,24.18-14.38,54-20.78,0,0-46.2,25-16.21,35.82,3.1,1.12,4.86,2.08,9.72,2.85a63.13,63.13,0,0,1,12.06,5.08c2.8,1.57,6.05,3.5,9.57,5.77,6.47-17.45,23.31-29.27,32.13-34.47a34.62,34.62,0,0,1,6.8-3,22.15,22.15,0,0,0,5.48-1.69c16.9-6.39-9.14-21.23-9.14-21.23,45.57,10.26,35.24,24.23,25.61,30.56-4,2.65-4.88,2.55-4.88,2.55-.31.28-6,3.78-6.1,3.82-22.66,26.12,34.15,27.33,34.15,27.33-6.1-12.12,17.07-22.23,17.07-22.23-12.2,21.82,4.88,24.66,4.88,24.66a28,28,0,0,1,4.6,1.14C542.31,128.68,468.78,77.67,438.93,60.94Z"/><rect class="cls-2" width="736" height="413"/></g></g></svg>