<?xml version="1.0" encoding="utf-8"?>
<!-- Generator: Adobe Illustrator 21.1.0, SVG Export Plug-In . SVG Version: 6.00 Build 0)  -->
<svg version="1.1" xmlns="http://www.w3.org/2000/svg" xmlns:xlink="http://www.w3.org/1999/xlink" x="0px" y="0px"
	 viewBox="0 0 2663 431" style="enable-background:new 0 0 2663 431;" xml:space="preserve">
<style type="text/css">
	.st0{fill:#FFFFFF;}
</style>
<g id="Layer_2">
</g>
<g id="Layer_3">
</g>
<g id="Layer_1">
	<g>
		<g>
			<path class="st0" d="M2295.1,343h320.2c0.9-2,1.5-3.3,1.5-3.3c62.8-85.2-18.1-141.5-49.7-159.3c-7.1-4-14.3-6-14.3-6
				c-5.8-0.9-7.8-2-11.5-3.4c-35.5-12.8,26.9-44.9,26.9-44.9c-95.7,20.5-83.2,47.5-63,60.1c8.5,5.3,24.6,16.1,24.6,16.1
				c0.6,0.6,1,0.8,1.1,0.9c47.6,52.2-72.8,53.7-72.8,53.7c12.8-24.2-33.3-48.4-33.3-48.4c25.6,43.6-12.8,53.3-12.8,53.3
				c-48.7,7.3-64,67.8-64,67.8c-23-14.5-17.9-50.8-17.9-50.8C2312.6,301.4,2301.4,322.8,2295.1,343z"/>
		</g>
	</g>
	<path class="st0" d="M2295,343L-22,431h2685l-24.5-169C2638.5,262,2398,333,2295,343z"/>
</g>
</svg>
